<?xml version="1.0" encoding="iso-8859-1"?>
<!-- Generator: Adobe Illustrator 19.0.0, SVG Export Plug-In . SVG Version: 6.00 Build 0)  -->
<svg version="1.1" id="Layer_1" xmlns="http://www.w3.org/2000/svg" xmlns:xlink="http://www.w3.org/1999/xlink" x="0px" y="0px"
	 viewBox="0 0 504.32 504.32" style="enable-background:new 0 0 504.32 504.32;" xml:space="preserve">
<g transform="translate(1 1)">
	<g>
		<path style="fill:#AAB1BA;" d="M498.2,208.493v256c0,18.773-15.36,34.133-34.133,34.133H37.4
			c-18.773,0-34.133-15.36-34.133-34.133v-256H88.6h85.333h76.8h76.8h76.8H498.2z"/>
		<path style="fill:#AAB1BA;" d="M320.707,31.853l45.227,60.587l-74.24,11.947L246.467,43.8L320.707,31.853z M378.733,140.227
			l-51.2,68.267h-76.8l51.2-68.267H378.733z M225.133,140.227l-51.2,68.267H88.6l51.2-68.267H225.133z M481.987,3.693L400.067,18.2
			l0,0l45.227,60.587l0,0l46.933-7.68L481.987,3.693z M167.96,58.307l45.227,59.733l-78.507,12.8l-0.853,0.853L88.6,71.96
			L167.96,58.307z M498.2,140.227v68.267h-93.867l51.2-68.267H498.2z"/>
	</g>
	<path style="fill:#ECF4F7;" d="M247.32,44.653l45.227,60.587l-79.36,12.8L167.96,58.307L247.32,44.653z M301.933,140.227
		l-51.2,68.267h-76.8l51.2-68.267H301.933z M455.533,140.227l-51.2,68.267h-76.8l51.2-68.267H455.533z M446.147,78.786
		L446.147,78.786l-79.36,13.653L321.56,31.853L400.92,18.2l0,0L446.147,78.786z M3.267,71.96v136.533H88.6l51.2-68.267l-5.973-8.533
		L88.6,71.96H3.267z"/>
</g>
<path style="fill:#51565F;" d="M465.067,503.893H38.4c-21.333,0-38.4-17.067-38.4-38.4V72.96c0-2.56,1.707-4.267,4.267-4.267H89.6
	c1.707,0,2.56,0.853,3.413,1.707l51.2,68.267c0.853,1.707,0.853,3.413,0,5.12l-51.2,68.267c-0.853,0.853-1.707,1.707-3.413,1.707
	H38.4c-2.56,0-4.267-1.707-4.267-4.267s1.707-4.267,4.267-4.267h49.493l47.787-64l-47.787-64H8.533v388.266
	c0,16.213,13.653,29.867,29.867,29.867h426.667c16.213,0,29.867-13.653,29.867-29.867V213.76h-89.6l0,0h-76.8l0,0h-76.8l0,0h-76.8
	l0,0H140.8c-2.56,0-4.267-1.707-4.267-4.267s1.707-4.267,4.267-4.267h32.427l45.227-59.733h-42.667c-2.56,0-4.267-1.707-4.267-4.267
	c0-2.56,1.707-4.267,4.267-4.267h51.2l0,0h76.8l0,0h76.8l0,0h76.8l0,0h42.667c2.56,0,4.267,1.707,4.267,4.267v324.267
	C503.467,486.827,486.4,503.893,465.067,503.893z M413.867,205.227h81.067v-59.733H458.24L413.867,205.227z M337.067,205.227h66.56
	l45.227-59.733h-66.56L337.067,205.227z M260.267,205.227h66.56l45.227-59.733h-66.56L260.267,205.227z M183.467,205.227h66.56
	l45.227-59.733h-66.56L183.467,205.227z M448,392.96H55.467c-2.56,0-4.267-1.707-4.267-4.267c0-2.56,1.707-4.267,4.267-4.267H307.2
	V252.16c0-2.56,1.707-4.267,4.267-4.267s4.267,1.707,4.267,4.267v132.267H448c2.56,0,4.267,1.707,4.267,4.267
	C452.267,391.253,450.56,392.96,448,392.96z M174.933,130.133c-1.707,0-4.267-1.707-4.267-3.413c0-2.56,0.853-4.267,3.413-5.12
	l32.427-5.12l-40.96-54.613l-38.4,5.973c-2.56,0-4.267-0.853-5.12-3.413c0-2.56,0.853-4.267,3.413-5.12l356.693-58.88
	c0.853,0,2.56,0,3.413,0.853c0.853,0.853,1.707,1.707,1.707,2.56l11.093,67.413c0,2.56-0.853,4.267-3.413,5.12L174.933,130.133
	C175.787,130.133,175.787,130.133,174.933,130.133z M174.933,60.16l40.96,54.613l69.973-11.947l-40.96-54.613L174.933,60.16z
	 M254.293,46.507l40.96,54.613l64.853-11.093l-40.96-54.613L254.293,46.507z M328.533,34.56l40.96,54.613l69.973-11.947
	l-40.96-54.613L328.533,34.56z M408.747,21.76l40.96,54.613l40.107-6.827l-9.387-59.733L408.747,21.76z"/>
<g>
</g>
<g>
</g>
<g>
</g>
<g>
</g>
<g>
</g>
<g>
</g>
<g>
</g>
<g>
</g>
<g>
</g>
<g>
</g>
<g>
</g>
<g>
</g>
<g>
</g>
<g>
</g>
<g>
</g>
</svg>
