<?xml version="1.0" encoding="iso-8859-1"?>
<!-- Generator: Adobe Illustrator 19.0.0, SVG Export Plug-In . SVG Version: 6.00 Build 0)  -->
<svg version="1.1" id="Layer_1" xmlns="http://www.w3.org/2000/svg" xmlns:xlink="http://www.w3.org/1999/xlink" x="0px" y="0px"
	 viewBox="0 0 503.467 503.467" style="enable-background:new 0 0 503.467 503.467;" xml:space="preserve">
<g transform="translate(1 1)">
	<path style="fill:#F2EDDA;" d="M478.824,72.388L460.05,97.134l-20.48,26.453l-17.067-8.533l-25.6,25.6l-34.133-34.133l25.6-25.6
		l-8.533-17.067l26.453-20.48l24.747-18.773l26.453-20.48c0,0,13.653,5.12,25.6,17.067c11.947,11.947,17.067,25.6,17.067,25.6
		L478.824,72.388z M221.97,314.734c-5.973-15.36-18.773-28.16-34.133-34.133l0,0l37.547-37.547l34.133,34.133L221.97,314.734
		L221.97,314.734z M294.503,242.201l-34.133,34.133l-34.133-34.133l34.133-34.133L294.503,242.201z M396.903,139.801l-34.133,34.133
		l-34.133-34.133l34.133-34.133L396.903,139.801z M328.637,208.067l-17.067,17.067l-17.067,17.067l-34.133-34.133l17.067-17.067
		l17.067-17.067L328.637,208.067z M362.77,173.934l-34.133,34.133l-34.133-34.133l34.133-34.133L362.77,173.934z"/>
	<path style="fill:#FF7474;" d="M111.037,357.401c-2.56-6.827-4.267-13.653-4.267-21.333c0-33.28,26.453-59.733,59.733-59.733
		c7.68,0,15.36,1.707,21.333,4.267l0,0l37.547-37.547l34.133-34.133l17.067-17.067h-0.853c-8.533-8.533-21.333-20.48-21.333-20.48
		c-23.893-18.773-58.027-17.92-80.213,4.267c-16.213,16.213-8.533,42.667-25.6,51.2c-34.133,17.067-79.36-0.853-112.64,32.427
		c-43.52,43.52-43.52,113.493,0,157.013c8.533,9.387,41.813,42.667,51.2,51.2c43.52,43.52,113.493,43.52,157.013,0
		c33.28-33.28,23.893-69.973,40.96-104.107c8.533-17.067,25.6-17.92,41.813-34.133c22.187-22.187,23.04-56.32,4.267-80.213
		c0,0-14.507-15.36-20.48-21.333l-0.853-0.853l-17.067,17.067l-34.133,34.133l-37.547,37.547l0,0
		c2.56,6.827,4.267,13.653,4.267,21.333c0,33.28-26.453,59.733-59.733,59.733c-7.68,0-15.36-1.707-21.333-4.267l-21.333,21.333
		l-17.067-17.067l17.067-17.067C118.717,372.761,113.597,365.934,111.037,357.401L111.037,357.401z M145.17,391.534l-21.333,21.333
		l-17.067-17.067l17.067-17.92C129.81,383.854,137.49,388.974,145.17,391.534z"/>
	<path style="fill:#AE938D;" d="M145.17,391.534c-7.68-2.56-14.507-7.68-20.48-13.653c-5.973-5.973-10.24-12.8-13.653-20.48
		c-2.56-6.827-4.267-13.653-4.267-21.333c0-33.28,26.453-59.733,59.733-59.733c7.68,0,15.36,1.707,21.333,4.267
		c15.36,5.973,28.16,18.773,34.133,34.133c2.56,6.827,4.267,13.653,4.267,21.333c0,33.28-26.453,59.733-59.733,59.733
		C158.824,395.801,151.997,394.094,145.17,391.534"/>
</g>
<path style="fill:#51565F;" d="M167.503,503.467c-30.72,0-59.733-11.947-81.067-34.133l-51.2-51.2
	C13.05,396.801,1.103,367.788,1.103,337.067s11.947-59.733,34.133-81.067c21.333-21.333,46.08-23.04,69.973-24.747
	c16.213-0.853,30.72-2.56,43.52-8.533c6.827-3.413,9.387-11.093,11.093-21.333c2.56-9.387,5.12-20.48,13.653-29.013
	c23.04-23.04,59.733-25.6,85.333-4.267c1.707,1.707,1.707,4.267,0.853,5.973c-1.707,1.707-4.267,1.707-5.973,0.853
	c-22.187-17.92-53.76-16.213-74.24,3.413c-6.827,6.827-9.387,16.213-11.093,24.747c-2.56,10.24-5.12,21.333-16.213,26.453
	c-14.507,7.68-30.72,8.533-46.933,9.387c-23.04,1.707-45.227,3.413-64,22.187c-20.48,20.48-31.573,46.933-31.573,75.093
	c0,28.16,11.093,55.467,31.573,75.093l51.2,51.2c20.48,20.48,46.933,31.573,75.093,31.573s55.467-11.093,75.093-31.573
	c19.627-19.627,23.893-40.107,28.16-62.293c2.56-13.653,5.12-27.307,11.947-40.96c5.12-11.093,13.653-16.213,23.04-21.333
	c6.827-4.267,13.653-7.68,19.627-14.507c20.48-20.48,22.187-52.053,4.267-74.24c-1.707-1.707-0.853-4.267,0.853-5.973
	c1.707-1.707,4.267-0.853,5.973,0.853c20.48,25.6,18.773,62.293-4.267,85.333c-7.68,7.68-15.36,11.947-21.333,16.213
	c-8.533,5.12-15.36,9.387-19.627,17.92c-5.973,12.8-8.533,25.6-11.093,38.4c-4.267,22.187-8.533,44.373-30.72,66.56
	C227.237,491.521,198.224,503.467,167.503,503.467z M141.903,435.201c-0.853,0-2.56,0-3.413-0.853l-68.267-68.267
	c-1.707-1.707-1.707-4.267,0-5.973c1.707-1.707,4.267-1.707,5.973,0l13.653,13.653l69.12-69.12c1.707-1.707,4.267-1.707,5.973,0
	c1.707,1.707,1.707,4.267,0,5.973l-69.12,69.12l11.093,11.093l73.387-73.387c1.707-1.707,4.267-1.707,5.973,0
	c1.707,1.707,1.707,4.267,0,5.973l-73.387,73.387l11.093,11.093l69.12-69.12c1.707-1.707,4.267-1.707,5.973,0
	c1.707,1.707,1.707,4.267,0,5.973l-69.12,69.12l13.653,13.653c1.707,1.707,1.707,4.267,0,5.973
	C144.463,435.201,142.757,435.201,141.903,435.201z M184.57,398.508c-1.707,0-3.413-0.853-4.267-3.413
	c-0.853-2.56,0.853-4.267,2.56-5.12c23.04-6.827,39.253-29.013,39.253-52.907c0-30.72-24.747-55.467-55.467-55.467
	c-23.893,0-46.08,16.213-52.907,39.253c-0.853,2.56-3.413,3.413-5.12,2.56c-2.56-0.853-3.413-3.413-2.56-5.12
	c7.68-26.453,33.28-45.227,61.44-45.227c6.827,0,13.653,0.853,20.48,3.413l35.84-35.84l0,0l0,0L383.397,81.067L376.57,66.56
	c-0.853-1.707,0-4.267,0.853-5.12l23.04-17.92l-6.827-10.24c-1.707-1.707-0.853-4.267,0.853-5.973
	c1.707-1.707,4.267-0.853,5.973,0.853l6.827,10.24l17.92-13.653l-5.973-8.533c-1.707-1.707-0.853-4.267,0.853-5.973
	c1.707-1.707,4.267-0.853,5.973,0.853l5.12,7.68l22.187-17.92C454.224,0,455.93,0,457.637,0c0.853,0,14.507,5.12,26.453,17.92
	c11.947,11.947,17.92,26.453,17.92,27.307c0.853,1.707,0,3.413-0.853,4.267l-17.92,22.187l7.68,5.12
	c1.707,1.707,2.56,4.267,0.853,5.973s-4.267,2.56-5.973,0.853l-8.533-5.973l-13.653,17.92l10.24,6.827
	c1.707,1.707,2.56,4.267,0.853,5.973c-1.707,1.707-4.267,2.56-5.973,0.853l-10.24-6.827l-17.92,23.04
	c-0.853,1.707-3.413,1.707-5.12,0.853l-14.507-6.827L224.677,315.734c2.56,6.827,3.413,13.653,3.413,20.48
	c0,28.16-18.773,52.907-45.227,61.44C185.424,398.508,185.424,398.508,184.57,398.508z M196.517,279.894
	c11.947,5.973,22.187,16.213,28.16,28.16l30.72-30.72l-28.16-28.16L196.517,279.894z M233.21,243.201l28.16,28.16l28.16-28.16
	l-28.16-28.16L233.21,243.201z M267.343,209.067l28.16,28.16l28.16-28.16l-28.16-28.16L267.343,209.067z M301.477,174.934
	l28.16,28.16l28.16-28.16l-28.16-28.16L301.477,174.934z M335.61,140.801l28.16,28.16l28.16-28.16l-28.16-28.16L335.61,140.801z
	 M369.743,106.667l28.16,28.16l22.187-22.187c1.707-1.707,3.413-1.707,5.12-0.853l13.653,6.827l15.36-19.627l-7.68-5.12
	c-1.707-1.707-2.56-4.267-0.853-5.973s4.267-2.56,5.973-0.853l8.533,5.973l13.653-17.92l-10.24-6.827
	c-1.707-1.707-2.56-4.267-0.853-5.973c1.707-1.707,4.267-2.56,5.973-0.853l10.24,6.827l16.213-21.333
	c-1.707-4.267-6.827-13.653-15.36-22.187s-17.92-12.8-21.333-14.507l-21.333,16.213l6.827,10.24
	c1.707,1.707,0.853,4.267-0.853,5.973c-1.707,1.707-4.267,0.853-5.973-0.853l-6.827-10.24l-17.92,13.653l5.973,8.533
	c1.707,1.707,0.853,4.267-0.853,5.973c-1.707,1.707-4.267,0.853-5.973-0.853l-5.12-7.68L386.81,66.56l6.827,13.653
	c0.853,1.707,0.853,3.413-0.853,5.12L369.743,106.667z"/>
<g>
</g>
<g>
</g>
<g>
</g>
<g>
</g>
<g>
</g>
<g>
</g>
<g>
</g>
<g>
</g>
<g>
</g>
<g>
</g>
<g>
</g>
<g>
</g>
<g>
</g>
<g>
</g>
<g>
</g>
</svg>
