<?xml version="1.0" encoding="iso-8859-1"?>
<!-- Generator: Adobe Illustrator 19.0.0, SVG Export Plug-In . SVG Version: 6.00 Build 0)  -->
<svg version="1.1" id="Layer_1" xmlns="http://www.w3.org/2000/svg" xmlns:xlink="http://www.w3.org/1999/xlink" x="0px" y="0px"
	 viewBox="0 0 503.467 503.467" style="enable-background:new 0 0 503.467 503.467;" xml:space="preserve">
<g transform="translate(1 3)">
	<path style="fill:#80D6FA;" d="M481.133,52.467V342.6c0,18.773-15.36,34.133-34.133,34.133H54.467
		c-18.773,0-34.133-15.36-34.133-34.133V52.467H481.133z M267.8,241.053c-5.12-0.853-8.533-0.853-8.533-0.853
		S262.68,241.053,267.8,241.053L267.8,241.053z"/>
	<polygon style="fill:#AAB1BA;" points="498.2,18.333 498.2,52.467 481.133,52.467 20.333,52.467 3.267,52.467 3.267,18.333 
		250.733,18.333 	"/>
</g>
<path style="fill:#51565F;" d="M311.467,503.467c-0.853,0-2.56,0-3.413-0.853L273.92,468.48c-1.707-1.707-1.707-4.267,0-5.973
	c1.707-1.707,4.267-1.707,5.973,0l34.133,34.133c1.707,1.707,1.707,4.267,0,5.973C314.027,503.467,312.32,503.467,311.467,503.467z
	 M192,503.467c-0.853,0-2.56,0-3.413-0.853c-1.707-1.707-1.707-4.267,0-5.973l58.88-58.88v-23.893c0-2.56,1.707-4.267,4.267-4.267
	c2.56,0,4.267,1.707,4.267,4.267v25.6c0,0.853-0.853,2.56-0.853,3.413l-59.733,59.733C194.56,503.467,192.853,503.467,192,503.467z
	 M448,384H55.467c-21.333,0-38.4-17.067-38.4-38.4v-256c0-2.56,1.707-4.267,4.267-4.267S25.6,87.04,25.6,89.6v256
	c0,16.213,13.653,29.867,29.867,29.867H448c16.213,0,29.867-13.653,29.867-29.867V55.467c0-2.56,1.707-4.267,4.267-4.267h12.8V25.6
	H8.533v25.6H448c2.56,0,4.267,1.707,4.267,4.267c0,2.56-1.707,4.267-4.267,4.267H4.267C1.707,59.733,0,58.027,0,55.467V21.333
	c0-2.56,1.707-4.267,4.267-4.267h243.2v-12.8c0-2.56,1.707-4.267,4.267-4.267C254.293,0,256,1.707,256,4.267v12.8h243.2
	c2.56,0,4.267,1.707,4.267,4.267v34.133c0,2.56-1.707,4.267-4.267,4.267h-12.8V345.6C486.4,366.933,469.333,384,448,384z
	 M260.267,298.667h-34.133c-2.56,0-4.267-1.707-4.267-4.267V192c0-2.56,1.707-4.267,4.267-4.267S230.4,189.44,230.4,192v98.133
	h29.867c0.853,0,29.867,0,29.867-21.333c0-13.653-11.947-18.773-21.333-20.48c-5.12,0-9.387-0.853-9.387-0.853
	c-1.707-0.853-3.413-2.56-3.413-4.267c0-2.56,1.707-3.413,4.267-3.413s5.973,0,9.387,0.853c4.267,0,9.387-0.853,13.653-4.267
	c4.267-3.413,6.827-9.387,6.827-17.92c0-8.533-2.56-14.507-6.827-17.92c-8.533-6.827-22.187-3.413-22.187-3.413
	c-2.56,0.853-4.267-0.853-5.12-3.413c-0.853-2.56,0.853-4.267,3.413-5.12c0.853,0,17.92-4.267,29.013,5.12
	c6.827,5.12,10.24,13.653,10.24,24.747s-3.413,19.627-10.24,24.747c-0.853,0.853-2.56,1.707-4.267,2.56
	c7.68,4.267,14.507,11.947,14.507,23.893C298.667,292.693,273.92,298.667,260.267,298.667z M379.733,264.533
	c-30.72,0-38.4-24.747-38.4-38.4V192c0-13.653,7.68-38.4,38.4-38.4s38.4,24.747,38.4,38.4c0,2.56-1.707,4.267-4.267,4.267l0,0
	c-2.56,0-4.267-1.707-4.267-4.267c0-0.853-0.853-29.867-29.867-29.867c-29.013,0-29.867,29.013-29.867,29.867v34.133
	c0,0.853,0.853,29.867,29.867,29.867c29.013,0,29.867-29.013,29.867-29.867c0-2.56,1.707-4.267,4.267-4.267l0,0
	c2.56,0,4.267,1.707,4.267,4.267C418.133,239.787,410.453,264.533,379.733,264.533z M174.933,247.467
	c-1.707,0-3.413-0.853-4.267-2.56l-38.4-93.013l-29.013,69.973h20.48c2.56,0,4.267,1.707,4.267,4.267s-1.707,4.267-4.267,4.267
	H99.84l-5.973,14.507c-0.853,2.56-3.413,3.413-5.973,2.56c-2.56-0.853-3.413-3.413-2.56-5.973L128,139.093
	c1.707-3.413,6.827-3.413,7.68,0l42.667,102.4c0.853,2.56,0,4.267-2.56,5.973C175.787,247.467,175.787,247.467,174.933,247.467z"/>
<g>
</g>
<g>
</g>
<g>
</g>
<g>
</g>
<g>
</g>
<g>
</g>
<g>
</g>
<g>
</g>
<g>
</g>
<g>
</g>
<g>
</g>
<g>
</g>
<g>
</g>
<g>
</g>
<g>
</g>
</svg>
