<?xml version="1.0" encoding="iso-8859-1"?>
<!-- Generator: Adobe Illustrator 19.0.0, SVG Export Plug-In . SVG Version: 6.00 Build 0)  -->
<svg version="1.1" id="Layer_1" xmlns="http://www.w3.org/2000/svg" xmlns:xlink="http://www.w3.org/1999/xlink" x="0px" y="0px"
	 viewBox="0 0 503.467 503.467" style="enable-background:new 0 0 503.467 503.467;" xml:space="preserve">
<g transform="translate(7 1)">
	<path style="fill:#E4F2DE;" d="M99.667,191H389.8V54.467H99.667V191z M441,45.933v409.6c0,23.893-18.773,42.667-42.667,42.667
		h-307.2c-23.893,0-42.667-18.773-42.667-42.667v-409.6c0-23.893,18.773-42.667,42.667-42.667h307.2
		C422.227,3.267,441,22.04,441,45.933L441,45.933z"/>
	<polygon style="fill:#80D6FA;" points="99.667,191 389.8,191 389.8,54.467 99.667,54.467 	"/>
</g>
<path style="fill:#51565F;" d="M405.333,503.467h-307.2c-25.6,0-46.933-21.333-46.933-46.933v-409.6C51.2,21.333,72.533,0,98.133,0
	h307.2c25.6,0,46.933,21.333,46.933,46.933v409.6C452.267,482.133,430.933,503.467,405.333,503.467z M98.133,8.533
	c-21.333,0-38.4,17.067-38.4,38.4v409.6c0,21.333,17.067,38.4,38.4,38.4h307.2c21.333,0,38.4-17.067,38.4-38.4v-409.6
	c0-21.333-17.067-38.4-38.4-38.4H98.133z M251.733,469.333c-2.56,0-4.267-1.707-4.267-4.267v-115.2H89.6
	c-2.56,0-4.267-1.707-4.267-4.267c0-2.56,1.707-4.267,4.267-4.267h157.867v-115.2c0-2.56,1.707-4.267,4.267-4.267
	c2.56,0,4.267,1.707,4.267,4.267v115.2h157.867c2.56,0,4.267,1.707,4.267,4.267c0,2.56-1.707,4.267-4.267,4.267H256v115.2
	C256,467.627,254.293,469.333,251.733,469.333z M183.467,452.267c-0.853,0-2.56,0-3.413-0.853l-22.187-22.187l-22.187,22.187
	c-1.707,1.707-4.267,1.707-5.973,0c-0.853-0.853-0.853-1.707-0.853-3.413s0-2.56,0.853-3.413l22.187-22.187l-22.187-22.187
	c-0.853-0.853-0.853-1.707-0.853-3.413s0-2.56,0.853-3.413c1.707-1.707,4.267-1.707,5.973,0l22.187,22.187l22.187-22.187
	c1.707-1.707,4.267-1.707,5.973,0c0.853,0.853,0.853,1.707,0.853,3.413s0,2.56-0.853,3.413L163.84,422.4l22.187,22.187
	c0.853,0.853,0.853,1.707,0.853,3.413s0,2.56-0.853,3.413C185.173,452.267,184.32,452.267,183.467,452.267z M371.2,443.733H320
	c-2.56,0-4.267-1.707-4.267-4.267c0-2.56,1.707-4.267,4.267-4.267h51.2c2.56,0,4.267,1.707,4.267,4.267
	C375.467,442.027,373.76,443.733,371.2,443.733z M371.2,409.6H320c-2.56,0-4.267-1.707-4.267-4.267c0-2.56,1.707-4.267,4.267-4.267
	h51.2c2.56,0,4.267,1.707,4.267,4.267C375.467,407.893,373.76,409.6,371.2,409.6z M157.867,298.667c-2.56,0-4.267-1.707-4.267-4.267
	v-21.333h-21.333c-2.56,0-4.267-1.707-4.267-4.267s1.707-4.267,4.267-4.267H153.6V243.2c0-2.56,1.707-4.267,4.267-4.267
	c2.56,0,4.267,1.707,4.267,4.267v21.333h21.333c2.56,0,4.267,1.707,4.267,4.267s-1.707,4.267-4.267,4.267h-21.333V294.4
	C162.133,296.96,160.427,298.667,157.867,298.667z M371.2,273.067H320c-2.56,0-4.267-1.707-4.267-4.267s1.707-4.267,4.267-4.267
	h51.2c2.56,0,4.267,1.707,4.267,4.267S373.76,273.067,371.2,273.067z M396.8,196.267H106.667c-2.56,0-4.267-1.707-4.267-4.267
	V55.467c0-2.56,1.707-4.267,4.267-4.267H396.8c2.56,0,4.267,1.707,4.267,4.267V192C401.067,194.56,399.36,196.267,396.8,196.267z
	 M110.933,187.733h281.6v-128h-281.6V187.733z M157.867,145.067c-2.56,0-4.267-1.707-4.267-4.267v-34.133
	c0-2.56,1.707-4.267,4.267-4.267c2.56,0,4.267,1.707,4.267,4.267V140.8C162.133,143.36,160.427,145.067,157.867,145.067z"/>
<g>
</g>
<g>
</g>
<g>
</g>
<g>
</g>
<g>
</g>
<g>
</g>
<g>
</g>
<g>
</g>
<g>
</g>
<g>
</g>
<g>
</g>
<g>
</g>
<g>
</g>
<g>
</g>
<g>
</g>
</svg>
