<?xml version="1.0" encoding="iso-8859-1"?>
<!-- Generator: Adobe Illustrator 19.0.0, SVG Export Plug-In . SVG Version: 6.00 Build 0)  -->
<svg version="1.1" id="Layer_1" xmlns="http://www.w3.org/2000/svg" xmlns:xlink="http://www.w3.org/1999/xlink" x="0px" y="0px"
	 viewBox="0 0 503.467 503.467" style="enable-background:new 0 0 503.467 503.467;" xml:space="preserve">
<g transform="translate(1 1)">
	<path style="fill:#ECF4F7;" d="M498.2,327.533v136.533c0,17.067-17.067,34.133-34.133,34.133H37.4
		c-17.067,0-34.133-17.067-34.133-34.133V327.533H498.2z M498.2,37.4v290.133H3.267V37.4c0-17.067,17.067-34.133,34.133-34.133
		h426.667C481.133,3.267,498.2,20.333,498.2,37.4z"/>
	<path style="fill:#AAB1BA;" d="M464.067,54.467V293.4H37.4V54.467C37.4,45.933,54.467,37.4,63,37.4h384
		C455.533,37.4,464.067,45.933,464.067,54.467L464.067,54.467z"/>
	<polygon style="fill:#7EE1E6;" points="191,464.067 310.467,464.067 310.467,429.933 191,429.933 	"/>
</g>
<path style="fill:#51565F;" d="M465.067,503.467H38.4c-19.627,0-38.4-18.773-38.4-38.4V328.533c0-2.56,1.707-4.267,4.267-4.267
	h460.8c2.56,0,4.267,1.707,4.267,4.267c0,2.56-1.707,4.267-4.267,4.267H8.533v132.267c0,14.507,15.36,29.867,29.867,29.867h426.667
	c14.507,0,29.867-15.36,29.867-29.867V38.4c0-14.507-15.36-29.867-29.867-29.867H38.4c-14.507,0-29.867,15.36-29.867,29.867v256
	c0,2.56-1.707,4.267-4.267,4.267S0,296.96,0,294.4v-256C0,18.773,18.773,0,38.4,0h426.667c19.627,0,38.4,18.773,38.4,38.4v426.667
	C503.467,484.693,484.693,503.467,465.067,503.467z M311.467,469.333H192c-2.56,0-4.267-1.707-4.267-4.267v-34.133
	c0-2.56,1.707-4.267,4.267-4.267h119.467c2.56,0,4.267,1.707,4.267,4.267v34.133C315.733,467.627,314.027,469.333,311.467,469.333z
	 M196.267,460.8H307.2v-25.6H196.267V460.8z M413.867,401.067H396.8c-2.56,0-4.267-1.707-4.267-4.267s1.707-4.267,4.267-4.267
	h17.067c2.56,0,4.267,1.707,4.267,4.267S416.427,401.067,413.867,401.067z M362.667,401.067H345.6c-2.56,0-4.267-1.707-4.267-4.267
	s1.707-4.267,4.267-4.267h17.067c2.56,0,4.267,1.707,4.267,4.267S365.227,401.067,362.667,401.067z M311.467,401.067H294.4
	c-2.56,0-4.267-1.707-4.267-4.267s1.707-4.267,4.267-4.267h17.067c2.56,0,4.267,1.707,4.267,4.267S314.027,401.067,311.467,401.067z
	 M260.267,401.067H243.2c-2.56,0-4.267-1.707-4.267-4.267s1.707-4.267,4.267-4.267h17.067c2.56,0,4.267,1.707,4.267,4.267
	S262.827,401.067,260.267,401.067z M209.067,401.067H192c-2.56,0-4.267-1.707-4.267-4.267s1.707-4.267,4.267-4.267h17.067
	c2.56,0,4.267,1.707,4.267,4.267S211.627,401.067,209.067,401.067z M157.867,401.067H140.8c-2.56,0-4.267-1.707-4.267-4.267
	s1.707-4.267,4.267-4.267h17.067c2.56,0,4.267,1.707,4.267,4.267S160.427,401.067,157.867,401.067z M106.667,401.067H89.6
	c-2.56,0-4.267-1.707-4.267-4.267s1.707-4.267,4.267-4.267h17.067c2.56,0,4.267,1.707,4.267,4.267S109.227,401.067,106.667,401.067z
	 M413.867,366.933H396.8c-2.56,0-4.267-1.707-4.267-4.267s1.707-4.267,4.267-4.267h17.067c2.56,0,4.267,1.707,4.267,4.267
	S416.427,366.933,413.867,366.933z M362.667,366.933H345.6c-2.56,0-4.267-1.707-4.267-4.267s1.707-4.267,4.267-4.267h17.067
	c2.56,0,4.267,1.707,4.267,4.267S365.227,366.933,362.667,366.933z M311.467,366.933H294.4c-2.56,0-4.267-1.707-4.267-4.267
	s1.707-4.267,4.267-4.267h17.067c2.56,0,4.267,1.707,4.267,4.267S314.027,366.933,311.467,366.933z M260.267,366.933H243.2
	c-2.56,0-4.267-1.707-4.267-4.267s1.707-4.267,4.267-4.267h17.067c2.56,0,4.267,1.707,4.267,4.267S262.827,366.933,260.267,366.933z
	 M209.067,366.933H192c-2.56,0-4.267-1.707-4.267-4.267S189.44,358.4,192,358.4h17.067c2.56,0,4.267,1.707,4.267,4.267
	S211.627,366.933,209.067,366.933z M157.867,366.933H140.8c-2.56,0-4.267-1.707-4.267-4.267s1.707-4.267,4.267-4.267h17.067
	c2.56,0,4.267,1.707,4.267,4.267S160.427,366.933,157.867,366.933z M106.667,366.933H89.6c-2.56,0-4.267-1.707-4.267-4.267
	S87.04,358.4,89.6,358.4h17.067c2.56,0,4.267,1.707,4.267,4.267S109.227,366.933,106.667,366.933z M465.067,298.667H38.4
	c-2.56,0-4.267-1.707-4.267-4.267V55.467C34.133,43.52,53.76,34.133,64,34.133h384c11.093,0,21.333,10.24,21.333,21.333V294.4
	C469.333,296.96,467.627,298.667,465.067,298.667z M42.667,290.133H460.8V55.467c0-5.973-6.827-12.8-12.8-12.8H64
	c-7.68,0-21.333,7.68-21.333,12.8V290.133z M413.867,162.133c-0.853,0-2.56,0-3.413-0.853l-68.267-68.267
	c-0.853-0.853-0.853-1.707-0.853-3.413s0-2.56,0.853-3.413c1.707-1.707,4.267-1.707,5.973,0l68.267,68.267
	c0.853,0.853,0.853,1.707,0.853,3.413c0,1.707,0,2.56-0.853,3.413C415.573,162.133,414.72,162.133,413.867,162.133z
	 M413.867,110.933c-0.853,0-2.56,0-3.413-0.853l-17.067-17.067c-0.853-0.853-0.853-1.707-0.853-3.413s0-2.56,0.853-3.413
	c1.707-1.707,4.267-1.707,5.973,0l17.067,17.067c0.853,0.853,0.853,1.707,0.853,3.413s0,2.56-0.853,3.413
	C415.573,110.933,414.72,110.933,413.867,110.933z"/>
<g>
</g>
<g>
</g>
<g>
</g>
<g>
</g>
<g>
</g>
<g>
</g>
<g>
</g>
<g>
</g>
<g>
</g>
<g>
</g>
<g>
</g>
<g>
</g>
<g>
</g>
<g>
</g>
<g>
</g>
</svg>
