<?xml version="1.0" encoding="iso-8859-1"?>
<!-- Generator: Adobe Illustrator 19.0.0, SVG Export Plug-In . SVG Version: 6.00 Build 0)  -->
<svg version="1.1" id="Layer_1" xmlns="http://www.w3.org/2000/svg" xmlns:xlink="http://www.w3.org/1999/xlink" x="0px" y="0px"
	 viewBox="0 0 503.594 503.594" style="enable-background:new 0 0 503.594 503.594;" xml:space="preserve">
<g transform="translate(1 3)">
	<g>
		<path style="fill:#E4F2DE;" d="M284.894,241.097c0,0-8.5-12.8-8.5-34.1v-154.5h8.5c5.1,0,8.5-4.3,8.5-8.5v-17.1
			c0-4.3-3.4-8.5-8.5-8.5h-119.4c-5.1,0-8.5,4.3-8.5,8.5v17.1c0,4.3,3.4,8.5,8.5,8.5h8.5v154.5c0,21.3-8.5,34.1-8.5,34.1
			l-106.7,136.6c0,0,81.1,17.1,149.3,0s136.5,0,136.5,0l33.3,7.7h0.9l-0.9-11.9L284.894,241.097z"/>
		<path style="fill:#E4F2DE;" d="M489.694,52.497h-119.4c-5.1,0-8.5,4.3-8.5,8.5v17.1c0,4.3,3.4,8.5,8.5,8.5h8.5v170.7
			c34.1,8.5,68.3,0,68.3,0s17.1-3.4,34.1-17.1v-153.5h8.5c5.1,0,8.5-4.3,8.5-8.5v-17.1
			C498.294,56.797,494.894,52.497,489.694,52.497z"/>
	</g>
	<path style="fill:#FFE079;" d="M447.094,257.297c0,0,17.1-3.4,34.1-17.1l0,0v187.7v0.9c-0.9,28.2-23,50.3-51.2,50.3
		s-51.2-23-51.2-51.2v-43.5v-11.9v-115.2C412.894,265.897,447.094,257.297,447.094,257.297z M421.494,189.097c5.1,0,8.5,4.3,8.5,8.5
		c0,4.3-3.4,8.5-8.5,8.5c-4.3,0-8.5-4.3-8.5-8.5C412.894,193.297,416.394,189.097,421.494,189.097z"/>
	<path style="fill:#80D6FA;" d="M429.994,479.197h-401.1c-25.6,0-33.3-19.6-17.1-42.7l47-59.7l0,0c0,0,81.1,17.1,149.3,0
		c68.3-17.1,136.5,0,136.5,0l33.3,7.7h0.9v43.5C378.794,456.197,401.894,479.197,429.994,479.197z M225.194,197.597
		c5.1,0,8.5,4.3,8.5,8.5s-3.4,8.5-8.5,8.5c-4.3,0-8.5-4.3-8.5-8.5S220.094,197.597,225.194,197.597z M191.094,291.497
		c9.4,0,17.1,7.7,17.1,17.1s-7.7,17.1-17.1,17.1s-17.1-7.7-17.1-17.1S181.694,291.497,191.094,291.497z"/>
</g>
<path style="fill:#51565F;" d="M430.994,486.497c-30.7,0-55.5-24.7-55.5-55.5v-170.7l0,0v-136.5c0-2.6,1.7-4.3,4.3-4.3
	s4.3,1.7,4.3,4.3v133.1c31.6,6.8,62.3-0.9,63.1-0.9c2.6-0.9,4.3,0.9,5.1,3.4c0.9,2.6-0.9,4.3-3.4,5.1c-1.7,0-32.4,7.7-64.9,0.9
	v165.5c0,25.6,21.3,46.9,46.9,46.9s46.1-20.5,46.9-46.1v-0.9v-341.1c0-2.6,1.7-4.3,4.3-4.3h8.5c2.6,0,4.3-1.7,4.3-4.3v-17
	c0-2.6-1.7-4.3-4.3-4.3h-119.3c-2.6,0-4.3,1.7-4.3,4.3v17.1c0,2.6,1.7,4.3,4.3,4.3h76.8c2.6,0,4.3,1.7,4.3,4.3
	c0,2.6-1.7,4.3-4.3,4.3h-76.8c-6.8,0-12.8-6-12.8-12.8v-17.2c0-6.8,6-12.8,12.8-12.8h119.5c6.8,0,12.8,6,12.8,12.8v17.1
	c0,6.8-6,12.8-12.8,12.8h-4.3v337.1c0,0,0,0.9,0,1.7C485.594,461.697,460.894,486.497,430.994,486.497z M362.694,486.497h-332.8
	c-12.8,0-23-5.1-27.3-13.7c-5.1-9.4-2.6-23,6.8-35.8l153.6-196.3l0,0c0,0,7.7-11.9,7.7-31.6v-119.4c0-2.6,1.7-4.3,4.3-4.3
	s4.3,1.7,4.3,4.3v119.5c0,22.2-8.5,35.8-9.4,36.7l-102.4,131.3c20.5,3.4,85.3,12.8,140.8-0.9c68.3-17.1,135.7-0.9,138.2,0
	c2.6,0.9,3.4,2.6,3.4,5.1c0,2.6-2.6,3.4-5.1,3.4c-0.9,0-68.3-16.2-134.8,0c-62.3,15.4-134.8,3.4-148.5,0.9l-45.2,58
	c-7.7,10.2-9.7,20.1-5.3,26.3c4,5.7,9.6,7.5,19,7.5h332.8c2.6,0,4.3,2.7,4.3,5.3S365.294,486.497,362.694,486.497z M345.694,333.697
	c-1.7,0-2.6-0.9-3.4-1.7l-59.8-86.2c0-0.9-9.4-14.5-9.4-36.7v-153.6c0-2.6,1.7-4.3,4.3-4.3h8.5c2.6,0,4.3-1.7,4.3-4.3v-17
	c0-2.6-1.7-4.3-4.3-4.3h-119.4c-2.6,0-4.3,1.7-4.3,4.3v17.1c0,2.6,1.7,4.3,4.3,4.3h76.8c2.6,0,4.3,1.7,4.3,4.3s-1.7,4.3-4.3,4.3
	h-76.8c-6.8,0-12.8-6-12.8-12.8v-17.2c0-6.8,6-12.8,12.8-12.8h119.5c6.8,0,12.8,6,12.8,12.8v17.1c0,6.8-6,12.8-12.8,12.8h-4.3v149.3
	c0,19.6,7.7,31.6,7.7,31.6l59.7,85.3c1.7,1.7,0.9,4.3-0.9,6C347.394,332.897,346.494,333.697,345.694,333.697z M192.094,332.897
	c-11.9,0-21.3-9.4-21.3-21.3s9.4-21.3,21.3-21.3s21.3,9.4,21.3,21.3S203.994,332.897,192.094,332.897z M192.094,298.697
	c-6.8,0-12.8,6-12.8,12.8s6,12.8,12.8,12.8s12.8-6,12.8-12.8S198.894,298.697,192.094,298.697z M256.094,290.197
	c-5.1,0-8.5-3.4-8.5-8.5s3.4-8.5,8.5-8.5s8.5,3.4,8.5,8.5S261.194,290.197,256.094,290.197z M256.094,281.697h-4.3H256.094
	L256.094,281.697z M226.194,221.897c-6.8,0-12.8-6-12.8-12.8s6-12.8,12.8-12.8s12.8,6,12.8,12.8
	C238.994,215.997,232.994,221.897,226.194,221.897z M226.194,204.897c-2.6,0-4.3,1.7-4.3,4.3s1.7,4.3,4.3,4.3s4.3-1.7,4.3-4.3
	S228.794,204.897,226.194,204.897z M422.494,213.397c-6.8,0-12.8-6-12.8-12.8s6-12.8,12.8-12.8s12.8,6,12.8,12.8
	S429.294,213.397,422.494,213.397z M422.494,196.297c-2.6,0-4.3,1.7-4.3,4.3s1.7,4.3,4.3,4.3s4.3-1.7,4.3-4.3
	C426.694,197.997,424.994,196.297,422.494,196.297z M443.794,153.697c-5.1,0-8.5-3.4-8.5-8.5s3.4-8.5,8.5-8.5s8.5,3.4,8.5,8.5
	S448.894,153.697,443.794,153.697z M443.794,145.097h-4.3H443.794L443.794,145.097z"/>
<g>
</g>
<g>
</g>
<g>
</g>
<g>
</g>
<g>
</g>
<g>
</g>
<g>
</g>
<g>
</g>
<g>
</g>
<g>
</g>
<g>
</g>
<g>
</g>
<g>
</g>
<g>
</g>
<g>
</g>
</svg>
